<svg id="svg" fill="#000000" stroke="#000000" width="42" height="42" version="1.1" viewBox="144 144 512 512" xmlns="http://www.w3.org/2000/svg">
    <g id="IconSvg_bgCarrier" stroke-width="0"></g>
    <g id="IconSvg_tracerCarrier" stroke-linecap="round" stroke-linejoin="round" stroke="#CCCCCC" stroke-width="0">
      <g xmlns="http://www.w3.org/2000/svg" fill-rule="evenodd">
  <path d="m604.29 398.17c1.0273-4.6602-0.10547-9.5508-3.0859-13.266-2.9805-3.7383-7.5156-5.8984-12.281-5.8984h-377.86c-4.7656 0-9.3008 2.1641-12.281 5.8984-2.9805 3.7148-4.1133 8.6055-3.0859 13.266 0 0 22.652 101.92 34.68 156.05 5.8555 26.406 29.285 45.195 56.344 45.195h226.55c27.059 0 50.484-18.789 56.344-45.195 12.027-54.137 34.68-156.05 34.68-156.05zm-34.992 12.324-30.418 136.89c-2.6641 12.008-13.309 20.551-25.609 20.551h-226.55c-12.301 0-22.945-8.543-25.609-20.551l-30.418-136.89z"></path>
  <path d="m625.66 363.26c0-9.7422-3.8633-19.082-10.77-25.969-6.8867-6.9062-16.227-10.77-25.969-10.77h-377.86c-9.7422 0-19.082 3.8633-25.969 10.77-6.9062 6.8867-10.77 16.227-10.77 25.969v10.496c0 9.7422 3.8633 19.082 10.77 25.969 6.8867 6.9062 16.227 10.77 25.969 10.77h377.86c9.7422 0 19.082-3.8633 25.969-10.77 6.9062-6.8867 10.77-16.227 10.77-25.969zm-31.488 0v10.496c0 1.3867-0.54688 2.7305-1.5312 3.7148-0.98828 0.98828-2.332 1.5312-3.7148 1.5312h-377.86c-1.3867 0-2.7305-0.54688-3.7148-1.5312-0.98828-0.98828-1.5312-2.332-1.5312-3.7148v-10.496c0-1.3867 0.54688-2.7305 1.5312-3.7148 0.98828-0.98828 2.332-1.5312 3.7148-1.5312h377.86c1.3867 0 2.7305 0.54688 3.7148 1.5312 0.98828 0.98828 1.5312 2.332 1.5312 3.7148z"></path>
  <path d="m571.04 334.34-73.473-125.95c-4.3867-7.4961-14.023-10.035-21.539-5.668-7.4961 4.3867-10.035 14.023-5.668 21.539l73.473 125.95c4.3867 7.4961 14.023 10.035 21.539 5.668 7.4961-4.3867 10.035-14.023 5.668-21.539z"></path>
  <path d="m256.16 350.21 73.473-125.95c4.3672-7.5156 1.8281-17.152-5.668-21.539-7.5156-4.3672-17.152-1.8281-21.539 5.668l-73.473 125.95c-4.3672 7.5156-1.8281 17.152 5.668 21.539 7.5156 4.3672 17.152 1.8281 21.539-5.668z"></path>
  <path d="m384.25 457.73v62.977c0 8.6914 7.0547 15.742 15.742 15.742 8.6914 0 15.742-7.0547 15.742-15.742v-62.977c0-8.6914-7.0547-15.742-15.742-15.742-8.6914 0-15.742 7.0547-15.742 15.742z"></path>
  <path d="m300.29 457.73v62.977c0 8.6914 7.0547 15.742 15.742 15.742 8.6914 0 15.742-7.0547 15.742-15.742v-62.977c0-8.6914-7.0547-15.742-15.742-15.742-8.6914 0-15.742 7.0547-15.742 15.742z"></path>
  <path d="m468.22 457.73v62.977c0 8.6914 7.0547 15.742 15.742 15.742 8.6914 0 15.742-7.0547 15.742-15.742v-62.977c0-8.6914-7.0547-15.742-15.742-15.742-8.6914 0-15.742 7.0547-15.742 15.742z"></path>
 </g>

      </g>
     <g id="IconSvg_iconCarrier">
      <g xmlns="http://www.w3.org/2000/svg" fill-rule="evenodd">
  <path d="m604.29 398.17c1.0273-4.6602-0.10547-9.5508-3.0859-13.266-2.9805-3.7383-7.5156-5.8984-12.281-5.8984h-377.86c-4.7656 0-9.3008 2.1641-12.281 5.8984-2.9805 3.7148-4.1133 8.6055-3.0859 13.266 0 0 22.652 101.92 34.68 156.05 5.8555 26.406 29.285 45.195 56.344 45.195h226.55c27.059 0 50.484-18.789 56.344-45.195 12.027-54.137 34.68-156.05 34.68-156.05zm-34.992 12.324-30.418 136.89c-2.6641 12.008-13.309 20.551-25.609 20.551h-226.55c-12.301 0-22.945-8.543-25.609-20.551l-30.418-136.89z"></path>
  <path d="m625.66 363.26c0-9.7422-3.8633-19.082-10.77-25.969-6.8867-6.9062-16.227-10.77-25.969-10.77h-377.86c-9.7422 0-19.082 3.8633-25.969 10.77-6.9062 6.8867-10.77 16.227-10.77 25.969v10.496c0 9.7422 3.8633 19.082 10.77 25.969 6.8867 6.9062 16.227 10.77 25.969 10.77h377.86c9.7422 0 19.082-3.8633 25.969-10.77 6.9062-6.8867 10.77-16.227 10.77-25.969zm-31.488 0v10.496c0 1.3867-0.54688 2.7305-1.5312 3.7148-0.98828 0.98828-2.332 1.5312-3.7148 1.5312h-377.86c-1.3867 0-2.7305-0.54688-3.7148-1.5312-0.98828-0.98828-1.5312-2.332-1.5312-3.7148v-10.496c0-1.3867 0.54688-2.7305 1.5312-3.7148 0.98828-0.98828 2.332-1.5312 3.7148-1.5312h377.86c1.3867 0 2.7305 0.54688 3.7148 1.5312 0.98828 0.98828 1.5312 2.332 1.5312 3.7148z"></path>
  <path d="m571.04 334.34-73.473-125.95c-4.3867-7.4961-14.023-10.035-21.539-5.668-7.4961 4.3867-10.035 14.023-5.668 21.539l73.473 125.95c4.3867 7.4961 14.023 10.035 21.539 5.668 7.4961-4.3867 10.035-14.023 5.668-21.539z"></path>
  <path d="m256.16 350.21 73.473-125.95c4.3672-7.5156 1.8281-17.152-5.668-21.539-7.5156-4.3672-17.152-1.8281-21.539 5.668l-73.473 125.95c-4.3672 7.5156-1.8281 17.152 5.668 21.539 7.5156 4.3672 17.152 1.8281 21.539-5.668z"></path>
  <path d="m384.25 457.73v62.977c0 8.6914 7.0547 15.742 15.742 15.742 8.6914 0 15.742-7.0547 15.742-15.742v-62.977c0-8.6914-7.0547-15.742-15.742-15.742-8.6914 0-15.742 7.0547-15.742 15.742z"></path>
  <path d="m300.29 457.73v62.977c0 8.6914 7.0547 15.742 15.742 15.742 8.6914 0 15.742-7.0547 15.742-15.742v-62.977c0-8.6914-7.0547-15.742-15.742-15.742-8.6914 0-15.742 7.0547-15.742 15.742z"></path>
  <path d="m468.22 457.73v62.977c0 8.6914 7.0547 15.742 15.742 15.742 8.6914 0 15.742-7.0547 15.742-15.742v-62.977c0-8.6914-7.0547-15.742-15.742-15.742-8.6914 0-15.742 7.0547-15.742 15.742z"></path>
 </g>

      </g>
      </svg>