<svg width="20" height="20" viewBox="0 0 20 20" fill="none" xmlns="http://www.w3.org/2000/svg">
<g clip-path="url(#clip0_143_8)">
<path d="M2.30153 0.665416C2.16905 0.391104 1.92648 0.177663 1.62716 0.0720483C1.32784 -0.0335666 0.996302 -0.0227039 0.705475 0.102246C0.414649 0.227197 0.188359 0.456 0.0763856 0.738321C-0.0355874 1.02064 -0.0240708 1.33336 0.108402 1.60767L6.31768 14.4474C6.32491 14.4583 6.35093 14.5169 6.38418 14.5715C6.5192 14.8031 6.72989 14.9874 6.98491 15.097C7.23992 15.2066 7.52563 15.2356 7.79952 15.1796C7.86458 15.166 7.92819 15.1483 7.9412 15.1442L16.9334 12.6174L17.0852 12.5752C17.7214 12.3979 18.3387 12.2261 18.8215 11.862C19.2408 11.5456 19.569 11.1325 19.7714 10.662C20.0027 10.122 20.0012 9.51386 19.9998 8.88933V5.59758C19.9998 5.58395 19.9998 5.51577 19.994 5.44759C19.9762 5.23868 19.902 5.03755 19.7785 4.86332C19.655 4.68909 19.4863 4.54754 19.2885 4.45215C19.0889 4.35584 18.8663 4.3098 18.6423 4.31852H4.06817L2.30153 0.664053V0.665416ZM15.1798 16.3633C14.6685 16.3633 14.1782 16.5548 13.8166 16.8958C13.4551 17.2369 13.252 17.6994 13.252 18.1816C13.252 18.6639 13.4551 19.1264 13.8166 19.4674C14.1782 19.8084 14.6685 20 15.1798 20H15.1899C15.7012 20 16.1916 19.8084 16.5531 19.4674C16.9147 19.1264 17.1178 18.6639 17.1178 18.1816C17.1178 17.6994 16.9147 17.2369 16.5531 16.8958C16.1916 16.5548 15.7012 16.3633 15.1899 16.3633H15.1798ZM2.65139 18.1823C2.65139 17.1773 3.51447 16.3633 4.5785 16.3633H4.58862C5.09992 16.3633 5.59027 16.5548 5.95181 16.8958C6.31335 17.2369 6.51646 17.6994 6.51646 18.1816C6.51646 18.6639 6.31335 19.1264 5.95181 19.4674C5.59027 19.8084 5.09992 20 4.58862 20H4.5785C4.0674 20 3.57723 19.8085 3.21583 19.4676C2.85442 19.1267 2.65139 18.6644 2.65139 18.1823Z" fill="#A9A8B0"/>
</g>
<defs>
<clipPath id="clip0_143_8">
<rect width="20" height="20" fill="white"/>
</clipPath>
</defs>
</svg>
