<svg width="21" height="19" viewBox="0 0 21 19" fill="none" xmlns="http://www.w3.org/2000/svg">
<path fill-rule="evenodd" clip-rule="evenodd" d="M6.225 0C2.755 0 0 2.639 0 6.082C0 8.231 1.37 10.392 3.145 12.422C4.955 14.492 7.383 16.637 9.848 18.758C10.0294 18.914 10.2607 18.9998 10.5 18.9998C10.7393 18.9998 10.9706 18.914 11.152 18.758C13.617 16.638 16.045 14.492 17.855 12.422C19.631 10.392 21 8.23 21 6.082C21 2.639 18.246 0 14.775 0C13.226 0 11.685 0.572 10.5 1.55C9.29505 0.558131 7.78563 0.0108556 6.225 0Z" fill="#C8C8D1"/>
</svg>
