<svg id="svg" fill="#000000" stroke="#000000" width="40" height="40" version="1.1" viewBox="144 144 512 512" xmlns="http://www.w3.org/2000/svg">
    <g id="IconSvg_bgCarrier" stroke-width="0"></g>
    <g id="IconSvg_tracerCarrier" stroke-linecap="round" stroke-linejoin="round" stroke="#CCCCCC" stroke-width="0">
      <path xmlns="http://www.w3.org/2000/svg" d="m587.72 470.73h-375.45c-10.59 0-19.211-8.6211-19.211-19.211v-103.03c0-10.59 8.6133-19.211 19.211-19.211h375.45c10.59 0 19.211 8.6133 19.211 19.211v103.04c0 10.586-8.6211 19.203-19.207 19.203zm-375.45-123.98c-0.96094 0-1.7422 0.78125-1.7422 1.7422v103.04c0 0.95312 0.78125 1.7422 1.7422 1.7422h375.45c0.96094 0 1.7422-0.78516 1.7422-1.7422v-103.04c0-0.96094-0.77734-1.7422-1.7422-1.7422z"></path>

      </g>
     <g id="IconSvg_iconCarrier">
      <path xmlns="http://www.w3.org/2000/svg" d="m587.72 470.73h-375.45c-10.59 0-19.211-8.6211-19.211-19.211v-103.03c0-10.59 8.6133-19.211 19.211-19.211h375.45c10.59 0 19.211 8.6133 19.211 19.211v103.04c0 10.586-8.6211 19.203-19.207 19.203zm-375.45-123.98c-0.96094 0-1.7422 0.78125-1.7422 1.7422v103.04c0 0.95312 0.78125 1.7422 1.7422 1.7422h375.45c0.96094 0 1.7422-0.78516 1.7422-1.7422v-103.04c0-0.96094-0.77734-1.7422-1.7422-1.7422z"></path>

      </g>
      </svg>