<svg id="svg" fill="#000000" stroke="#000000" width="16" height="16" version="1.1" viewBox="144 144 512 512" xmlns="http://www.w3.org/2000/svg">
    <g id="IconSvg_bgCarrier" stroke-width="0"></g>
    <g id="IconSvg_tracerCarrier" stroke-linecap="round" stroke-linejoin="round" stroke="#CCCCCC" stroke-width="0">
      <defs xmlns="http://www.w3.org/2000/svg">
  <clipPath id="a">
   <path d="m148.09 236h503.81v328h-503.81z"></path>
  </clipPath>
 </defs>
<g xmlns="http://www.w3.org/2000/svg" clip-path="url(#a)">
  <path d="m400 236.26c-141.25 0-251.91 55.324-251.91 125.95v75.574c0 70.625 110.65 125.95 251.91 125.95 141.25 0 251.9-55.328 251.9-125.95v-75.574c0-70.625-110.65-125.95-251.9-125.95zm0 16.793c127.45 0 235.11 49.984 235.11 109.16 0 59.176-107.66 109.16-235.11 109.16-127.45 0-235.11-49.984-235.11-109.16 0-59.172 107.66-109.16 235.11-109.16zm39.438 233.63c0.52344-0.042969 1.0352-0.09375 1.5625-0.13281 5.3086-0.42188 10.539-0.93359 15.719-1.5039 0.67969-0.078125 1.3789-0.11719 2.0586-0.20312v58.477c-8.2461 1.0312-16.652 1.8398-25.191 2.4336v-58.691c1.9492-0.12891 3.9141-0.22656 5.8516-0.37891zm36.133-4.0742c0.41797-0.066406 0.82422-0.14062 1.2344-0.19922 0.79687-0.125 1.5703-0.26953 2.3594-0.39453 4.7852-0.76562 9.4961-1.6133 14.148-2.5117 1.0898-0.21094 2.1836-0.41016 3.2656-0.62891 1.4023-0.28516 2.7969-0.57031 4.1836-0.86719v58c-8.1562 1.8555-16.578 3.4648-25.191 4.8789zm41.984-8.5625c3.2891-0.84766 6.5234-1.7383 9.7227-2.6523 0.875-0.25391 1.7539-0.48828 2.6211-0.75 1.5039-0.4375 2.9727-0.89844 4.4492-1.3516v57.395c-5.4414 1.7969-11.043 3.4922-16.793 5.0781zm33.586-10.422c2.4102-0.89062 4.7539-1.8203 7.0859-2.7539 0.60547-0.24219 1.2266-0.46875 1.8242-0.71484 2.6875-1.082 5.2969-2.2148 7.8828-3.3555v56.492c-5.3477 2.5508-10.949 4.9961-16.793 7.3125zm33.59-15.004c0.30078-0.16797 0.62109-0.32031 0.92969-0.48828 0.33594-0.18359 0.6875-0.35156 1.0234-0.53516 3.6953-2.0234 7.2148-4.125 10.641-6.2734 0.75391-0.46875 1.5039-0.95703 2.25-1.4375 0.64844-0.41797 1.3086-0.82031 1.9492-1.25v54.445c-5.0977 3.9219-10.723 7.6758-16.793 11.27zm-386.25-9.9844c0.63672 0.42969 1.3008 0.83203 1.9453 1.25 0.75 0.48047 1.4961 0.96875 2.25 1.4375 3.4258 2.1484 6.9453 4.25 10.641 6.2734 0.33594 0.18359 0.6875 0.35156 1.0234 0.53516 0.3125 0.16797 0.62109 0.32031 0.93359 0.48828v55.73c-6.0703-3.5938-11.699-7.3477-16.793-11.27zm33.586 18.164c2.5859 1.1406 5.1953 2.2734 7.8828 3.3555 0.59766 0.24609 1.2188 0.47266 1.8164 0.71484 2.3398 0.93359 4.6836 1.8633 7.0938 2.7539v56.98c-5.8438-2.3164-11.445-4.7617-16.793-7.3125zm33.586 12.492c1.4805 0.45312 2.9492 0.91406 4.4531 1.3516 0.86328 0.26172 1.7461 0.49609 2.6172 0.75 3.1992 0.91406 6.4336 1.8047 9.7227 2.6523v57.719c-5.75-1.5859-11.352-3.2812-16.793-5.0781zm33.59 8.7148c1.3828 0.29688 2.7773 0.58203 4.1797 0.86719 1.082 0.21875 2.1758 0.41797 3.2656 0.62891 4.6523 0.89844 9.3633 1.7461 14.148 2.5117 0.78906 0.125 1.5625 0.26953 2.3516 0.39453 0.42188 0.058594 0.82422 0.13281 1.2422 0.19922v58.277c-8.6133-1.4141-17.035-3.0234-25.188-4.8789zm41.984 6.8359c0.66797 0.085938 1.375 0.125 2.0547 0.20312 5.1797 0.57031 10.414 1.082 15.719 1.5039 0.53125 0.039062 1.043 0.089843 1.5625 0.13281 1.9414 0.15234 3.9062 0.25 5.8516 0.37891v58.691c-8.5391-0.59375-16.945-1.4023-25.188-2.4336zm-176.34-47.062v-29.48c0.26172 0.33594 0.58984 0.66016 0.85547 0.99609 1.9336 2.4609 3.9727 4.8867 6.1914 7.2656 0.16016 0.16797 0.29297 0.34375 0.45312 0.51172 2.3828 2.5195 4.9688 4.9688 7.6562 7.3789 0.54688 0.48828 1.082 0.97656 1.6367 1.4531v51.566c-10.773-12.379-16.793-25.77-16.793-39.691zm218.32 108.83v-58.746c5.5508 0.17578 11.137 0.29297 16.797 0.29297 5.6484 0 11.242-0.11719 16.793-0.29297v58.746c-5.5586 0.19141-11.152 0.32422-16.793 0.32422-5.6445 0-11.238-0.13281-16.797-0.32422zm251.91-138.31v29.48c0 13.922-6.0195 27.312-16.793 39.691v-51.566c0.55469-0.47656 1.0898-0.96484 1.6367-1.4531 2.6875-2.4102 5.2734-4.8594 7.6562-7.3789 0.16016-0.16797 0.29688-0.34375 0.45703-0.51172 2.2148-2.3789 4.2656-4.8047 6.1953-7.2656 0.26172-0.34375 0.58594-0.66016 0.84766-0.99609z" fill-rule="evenodd"></path>
 </g>
<path xmlns="http://www.w3.org/2000/svg" d="m282.19 438.69 70.633-25.5c0.42969-0.15234 0.73047-0.33594 0.91797-0.47266l0.38281-3.3477c-21.199-8.7852-29.789-22.672-33.023-34.598-4.8125-1.9453-8.5625-4.9688-10.805-8.7812-2.3438-3.9883-2.8828-8.6406-1.5117-13.082l1.9375-6.2891c1.9141-6.25 7.6406-11.59 15.637-14.738 2.7461-5.2383 6.2461-10.023 10.43-14.258 1.8047-1.8203 3.2812-3.1836 4.4805-4.2734 0.45312-0.41797 0.85938-0.76562 1.2031-1.082-0.050781-0.41406-0.13672-0.88281-0.22656-1.4375-0.41406-2.4766-0.55469-4.7109-0.55469-6.5898 0-5.2422 4.5156-9.3477 10.285-9.3477 2.3281 0 4.4844 0.67969 6.2305 1.9648 0.72266 0.53906 2.5703 1.6641 6.7852 3.1992 7.5977 2.7734 18.348 4.0234 29.801 3.543 1.7031-0.066406 3.4336-0.10937 5.207-0.10937 24.863 0 58.984 3.0234 73.43 28.309 8.1016 3.1289 13.914 8.5117 15.852 14.82l1.9336 6.2891c1.3672 4.4414 0.82812 9.0938-1.5117 13.082-2.25 3.8125-5.9961 6.8359-10.809 8.7812-3.2305 11.926-11.82 25.812-33.023 34.598l0.39453 3.4258c0.17578 0.13281 0.46094 0.30078 0.86328 0.45312l69.207 25.879c62.27-17.871 101.98-48.484 101.98-76.918 0-43.594-93.363-92.363-218.32-92.363s-218.32 48.77-218.32 92.363c0 28.207 39.105 58.555 100.51 76.48" fill-rule="evenodd"></path>

      </g>
     <g id="IconSvg_iconCarrier">
      <defs xmlns="http://www.w3.org/2000/svg">
  <clipPath id="a">
   <path d="m148.09 236h503.81v328h-503.81z"></path>
  </clipPath>
 </defs>
<g xmlns="http://www.w3.org/2000/svg" clip-path="url(#a)">
  <path d="m400 236.26c-141.25 0-251.91 55.324-251.91 125.95v75.574c0 70.625 110.65 125.95 251.91 125.95 141.25 0 251.9-55.328 251.9-125.95v-75.574c0-70.625-110.65-125.95-251.9-125.95zm0 16.793c127.45 0 235.11 49.984 235.11 109.16 0 59.176-107.66 109.16-235.11 109.16-127.45 0-235.11-49.984-235.11-109.16 0-59.172 107.66-109.16 235.11-109.16zm39.438 233.63c0.52344-0.042969 1.0352-0.09375 1.5625-0.13281 5.3086-0.42188 10.539-0.93359 15.719-1.5039 0.67969-0.078125 1.3789-0.11719 2.0586-0.20312v58.477c-8.2461 1.0312-16.652 1.8398-25.191 2.4336v-58.691c1.9492-0.12891 3.9141-0.22656 5.8516-0.37891zm36.133-4.0742c0.41797-0.066406 0.82422-0.14062 1.2344-0.19922 0.79687-0.125 1.5703-0.26953 2.3594-0.39453 4.7852-0.76562 9.4961-1.6133 14.148-2.5117 1.0898-0.21094 2.1836-0.41016 3.2656-0.62891 1.4023-0.28516 2.7969-0.57031 4.1836-0.86719v58c-8.1562 1.8555-16.578 3.4648-25.191 4.8789zm41.984-8.5625c3.2891-0.84766 6.5234-1.7383 9.7227-2.6523 0.875-0.25391 1.7539-0.48828 2.6211-0.75 1.5039-0.4375 2.9727-0.89844 4.4492-1.3516v57.395c-5.4414 1.7969-11.043 3.4922-16.793 5.0781zm33.586-10.422c2.4102-0.89062 4.7539-1.8203 7.0859-2.7539 0.60547-0.24219 1.2266-0.46875 1.8242-0.71484 2.6875-1.082 5.2969-2.2148 7.8828-3.3555v56.492c-5.3477 2.5508-10.949 4.9961-16.793 7.3125zm33.59-15.004c0.30078-0.16797 0.62109-0.32031 0.92969-0.48828 0.33594-0.18359 0.6875-0.35156 1.0234-0.53516 3.6953-2.0234 7.2148-4.125 10.641-6.2734 0.75391-0.46875 1.5039-0.95703 2.25-1.4375 0.64844-0.41797 1.3086-0.82031 1.9492-1.25v54.445c-5.0977 3.9219-10.723 7.6758-16.793 11.27zm-386.25-9.9844c0.63672 0.42969 1.3008 0.83203 1.9453 1.25 0.75 0.48047 1.4961 0.96875 2.25 1.4375 3.4258 2.1484 6.9453 4.25 10.641 6.2734 0.33594 0.18359 0.6875 0.35156 1.0234 0.53516 0.3125 0.16797 0.62109 0.32031 0.93359 0.48828v55.73c-6.0703-3.5938-11.699-7.3477-16.793-11.27zm33.586 18.164c2.5859 1.1406 5.1953 2.2734 7.8828 3.3555 0.59766 0.24609 1.2188 0.47266 1.8164 0.71484 2.3398 0.93359 4.6836 1.8633 7.0938 2.7539v56.98c-5.8438-2.3164-11.445-4.7617-16.793-7.3125zm33.586 12.492c1.4805 0.45312 2.9492 0.91406 4.4531 1.3516 0.86328 0.26172 1.7461 0.49609 2.6172 0.75 3.1992 0.91406 6.4336 1.8047 9.7227 2.6523v57.719c-5.75-1.5859-11.352-3.2812-16.793-5.0781zm33.59 8.7148c1.3828 0.29688 2.7773 0.58203 4.1797 0.86719 1.082 0.21875 2.1758 0.41797 3.2656 0.62891 4.6523 0.89844 9.3633 1.7461 14.148 2.5117 0.78906 0.125 1.5625 0.26953 2.3516 0.39453 0.42188 0.058594 0.82422 0.13281 1.2422 0.19922v58.277c-8.6133-1.4141-17.035-3.0234-25.188-4.8789zm41.984 6.8359c0.66797 0.085938 1.375 0.125 2.0547 0.20312 5.1797 0.57031 10.414 1.082 15.719 1.5039 0.53125 0.039062 1.043 0.089843 1.5625 0.13281 1.9414 0.15234 3.9062 0.25 5.8516 0.37891v58.691c-8.5391-0.59375-16.945-1.4023-25.188-2.4336zm-176.34-47.062v-29.48c0.26172 0.33594 0.58984 0.66016 0.85547 0.99609 1.9336 2.4609 3.9727 4.8867 6.1914 7.2656 0.16016 0.16797 0.29297 0.34375 0.45312 0.51172 2.3828 2.5195 4.9688 4.9688 7.6562 7.3789 0.54688 0.48828 1.082 0.97656 1.6367 1.4531v51.566c-10.773-12.379-16.793-25.77-16.793-39.691zm218.32 108.83v-58.746c5.5508 0.17578 11.137 0.29297 16.797 0.29297 5.6484 0 11.242-0.11719 16.793-0.29297v58.746c-5.5586 0.19141-11.152 0.32422-16.793 0.32422-5.6445 0-11.238-0.13281-16.797-0.32422zm251.91-138.31v29.48c0 13.922-6.0195 27.312-16.793 39.691v-51.566c0.55469-0.47656 1.0898-0.96484 1.6367-1.4531 2.6875-2.4102 5.2734-4.8594 7.6562-7.3789 0.16016-0.16797 0.29688-0.34375 0.45703-0.51172 2.2148-2.3789 4.2656-4.8047 6.1953-7.2656 0.26172-0.34375 0.58594-0.66016 0.84766-0.99609z" fill-rule="evenodd"></path>
 </g>
<path xmlns="http://www.w3.org/2000/svg" d="m282.19 438.69 70.633-25.5c0.42969-0.15234 0.73047-0.33594 0.91797-0.47266l0.38281-3.3477c-21.199-8.7852-29.789-22.672-33.023-34.598-4.8125-1.9453-8.5625-4.9688-10.805-8.7812-2.3438-3.9883-2.8828-8.6406-1.5117-13.082l1.9375-6.2891c1.9141-6.25 7.6406-11.59 15.637-14.738 2.7461-5.2383 6.2461-10.023 10.43-14.258 1.8047-1.8203 3.2812-3.1836 4.4805-4.2734 0.45312-0.41797 0.85938-0.76562 1.2031-1.082-0.050781-0.41406-0.13672-0.88281-0.22656-1.4375-0.41406-2.4766-0.55469-4.7109-0.55469-6.5898 0-5.2422 4.5156-9.3477 10.285-9.3477 2.3281 0 4.4844 0.67969 6.2305 1.9648 0.72266 0.53906 2.5703 1.6641 6.7852 3.1992 7.5977 2.7734 18.348 4.0234 29.801 3.543 1.7031-0.066406 3.4336-0.10937 5.207-0.10937 24.863 0 58.984 3.0234 73.43 28.309 8.1016 3.1289 13.914 8.5117 15.852 14.82l1.9336 6.2891c1.3672 4.4414 0.82812 9.0938-1.5117 13.082-2.25 3.8125-5.9961 6.8359-10.809 8.7812-3.2305 11.926-11.82 25.812-33.023 34.598l0.39453 3.4258c0.17578 0.13281 0.46094 0.30078 0.86328 0.45312l69.207 25.879c62.27-17.871 101.98-48.484 101.98-76.918 0-43.594-93.363-92.363-218.32-92.363s-218.32 48.77-218.32 92.363c0 28.207 39.105 58.555 100.51 76.48" fill-rule="evenodd"></path>

      </g>
      </svg>