<!-- icon666.com - MILLIONS OF FREE VECTOR ICONS --><svg viewBox="0 0 426 426.70965" xmlns="http://www.w3.org/2000/svg"><path d="m390.09375 232.554688c-7.46875-11.710938-7.46875-26.6875 0-38.398438l13.332031-20.800781c2.140625-3.359375 2.761719-7.464844 1.707031-11.308594-.957031-3.886719-3.570312-7.160156-7.144531-8.957031l-21.976562-11.308594c-12.253907-6.4375-19.722657-19.339844-19.199219-33.171875l1.175781-24.746094c.238281-3.996093-1.28125-7.890625-4.160156-10.667969-2.734375-2.945312-6.664063-4.480468-10.667969-4.160156l-24.640625 1.171875c-13.886719.636719-26.878906-6.859375-33.28125-19.199219l-11.304687-21.972656c-1.859375-3.523437-5.101563-6.109375-8.945313-7.144531-3.847656-1.03125-7.949219-.414063-11.320312 1.703125l-20.800781 13.335938c-11.710938 7.464843-26.691407 7.464843-38.402344 0l-20.796875-13.335938c-3.375-2.117188-7.476563-2.734375-11.320313-1.703125-3.847656 1.035156-7.089844 3.621094-8.949218 7.144531l-11.304688 21.972656c-6.449219 12.296876-19.40625 19.773438-33.28125 19.199219l-24.640625-1.171875c-4.011719-.371094-7.960937 1.171875-10.664063 4.160156-2.878906 2.777344-4.398437 6.671876-4.160156 10.667969l1.171875 24.636719c.554688 13.871094-6.917969 26.820312-19.199219 33.28125l-21.972656 11.308594c-3.578125 1.796875-6.1875 5.070312-7.148437 8.957031-1.050781 3.84375-.433594 7.949219 1.707031 11.308594l13.332031 20.800781c7.46875 11.710938 7.46875 26.6875 0 38.398438l-13.332031 20.800781c-2.140625 3.359375-2.757812 7.464843-1.707031 11.304687.960937 3.886719 3.570312 7.164063 7.148437 8.960938l21.972656 11.308594c12.253907 6.433593 19.722657 19.339843 19.199219 33.171874l-1.171875 24.746094c-.21875 3.988282 1.296875 7.878906 4.160156 10.667969 2.722657 2.953125 6.660157 4.488281 10.664063 4.160156l24.640625-1.175781c13.878906-.59375 26.851562 6.890625 33.28125 19.203125l11.304688 21.972656c1.800781 3.574219 5.074218 6.1875 8.960937 7.144531 3.839844 1.054688 7.949219.433594 11.308594-1.707031l20.796875-13.332031c11.691406-7.539062 26.710937-7.539062 38.402344 0l20.800781 13.332031c3.355469 2.148438 7.464843 2.769531 11.304687 1.707031 3.886719-.957031 7.160156-3.570312 8.960938-7.144531l11.304687-21.972656c6.503907-12.246094 19.425781-19.703125 33.28125-19.203125l24.640625 1.175781c4 .296875 7.921875-1.230469 10.667969-4.160156 2.859375-2.789063 4.378906-6.679687 4.160156-10.667969l-1.175781-24.746094c-.523438-13.832031 6.945312-26.738281 19.199219-33.171874l21.976562-11.308594c3.574219-1.796875 6.1875-5.074219 7.144531-8.960938 1.054688-3.839844.433594-7.945312-1.707031-11.304687zm-176.425781 130.132812c-82.476563 0-149.335938-66.859375-149.335938-149.332031 0-82.476563 66.859375-149.332031 149.335938-149.332031 82.472656 0 149.332031 66.855468 149.332031 149.332031-.089844 82.4375-66.894531 149.242187-149.332031 149.332031zm0 0" fill="#42a5f5"></path><path d="m213.667969 85.355469c-70.695313 0-128 57.308593-128 128 0 70.691406 57.304687 128 128 128 70.691406 0 128-57.308594 128-128-.058594-70.667969-57.332031-127.941407-128-128zm82.238281 112.53125-33.492188 34.347656 7.890626 48.746094c.519531 3.078125-.339844 6.226562-2.355469 8.613281-2.011719 2.382812-4.976563 3.757812-8.097657 3.761719-1.835937.019531-3.640624-.457031-5.226562-1.386719l-40.957031-22.613281-40.960938 22.613281c-3.558593 2.019531-7.960937 1.808594-11.3125-.539062-3.351562-2.347657-5.050781-6.414063-4.367187-10.449219l7.890625-48.746094-33.492188-34.347656c-2.859375-2.839844-3.851562-7.058594-2.558593-10.878907 1.28125-3.789062 4.574218-6.546874 8.53125-7.144531l45.976562-7.042969 20.691406-44.050781c1.957032-3.460937 5.625-5.601562 9.601563-5.601562 3.972656 0 7.640625 2.140625 9.597656 5.601562l20.695313 44.050781 45.972656 7.042969c3.957031.597657 7.25 3.355469 8.53125 7.144531 1.296875 3.820313.300781 8.039063-2.558594 10.878907zm0 0" fill="#90caf9"></path><path d="m240.441406 230.421875 5.332032 32.320313-26.988282-14.933594c-3.199218-1.707032-7.039062-1.707032-10.238281 0l-26.988281 14.933594 5.335937-32.320313c.570313-3.363281-.546875-6.792969-2.988281-9.171875l-22.828125-23.46875 31.148437-4.691406c3.511719-.570313 6.511719-2.847656 8-6.082032l13.441407-28.585937 13.4375 28.585937c1.488281 3.234376 4.488281 5.511719 8 6.082032l31.148437 4.691406-22.828125 23.46875c-2.441406 2.378906-3.558593 5.808594-2.984375 9.171875zm0 0" fill="#42a5f5"></path><g fill="#1976d2"><path d="m213.667969 64.023438c-82.476563 0-149.335938 66.855468-149.335938 149.332031 0 82.472656 66.859375 149.332031 149.335938 149.332031 82.472656 0 149.332031-66.859375 149.332031-149.332031-.089844-82.4375-66.894531-149.242188-149.332031-149.332031zm0 277.332031c-70.695313 0-128-57.308594-128-128 0-70.691407 57.304687-128 128-128 70.691406 0 128 57.308593 128 128-.058594 70.667969-57.332031 127.941406-128 128zm0 0"></path><path d="m289.933594 179.863281-45.972656-7.042969-20.695313-44.050781c-1.957031-3.460937-5.625-5.601562-9.597656-5.601562-3.976563 0-7.644531 2.140625-9.601563 5.601562l-20.691406 44.050781-45.976562 7.042969c-3.957032.597657-7.25 3.355469-8.53125 7.144531-1.292969 3.820313-.300782 8.039063 2.558593 10.878907l33.492188 34.347656-7.890625 48.746094c-.683594 4.035156 1.015625 8.101562 4.367187 10.449219 3.351563 2.347656 7.753907 2.558593 11.3125.539062l40.960938-22.613281 40.957031 22.613281c1.585938.929688 3.390625 1.40625 5.226562 1.386719 3.121094-.003907 6.085938-1.378907 8.097657-3.761719 2.015625-2.386719 2.875-5.535156 2.355469-8.613281l-7.890626-48.746094 33.492188-34.347656c2.859375-2.839844 3.855469-7.058594 2.558594-10.878907-1.28125-3.789062-4.574219-6.546874-8.53125-7.144531zm-46.507813 41.386719c-2.441406 2.378906-3.558593 5.808594-2.984375 9.171875l5.332032 32.320313-26.988282-14.933594c-3.199218-1.707032-7.039062-1.707032-10.238281 0l-26.988281 14.933594 5.335937-32.320313c.570313-3.363281-.546875-6.792969-2.988281-9.171875l-22.828125-23.46875 31.148437-4.691406c3.511719-.570313 6.511719-2.847656 8-6.082032l13.441407-28.585937 13.4375 28.585937c1.488281 3.234376 4.488281 5.511719 8 6.082032l31.148437 4.691406zm0 0"></path><path d="m408.011719 221.035156c-2.984375-4.683594-2.984375-10.675781 0-15.359375l13.335937-20.800781c5.4375-8.402344 7.027344-18.726562 4.371094-28.375-2.566406-9.648438-9.066406-17.777344-17.917969-22.398438l-21.972656-11.308593c-4.890625-2.566407-7.875-7.707031-7.679687-13.226563l1.171874-24.746094c.433594-9.976562-3.316406-19.679687-10.347656-26.773437-7.144531-6.945313-16.8125-10.679687-26.773437-10.34375l-24.746094 1.171875c-5.523437.210938-10.671875-2.777344-13.226563-7.679688l-11.308593-21.972656c-4.644531-8.851562-12.757813-15.378906-22.398438-18.027344-9.667969-2.566406-19.96875-.941406-28.371093 4.480469l-20.800782 13.332031c-4.683594 2.988282-10.675781 2.988282-15.359375 0l-20.800781-13.332031c-8.410156-5.429687-18.71875-7.058593-28.390625-4.476562-9.667969 2.578125-17.800781 9.125-22.382813 18.023437l-11.308593 21.972656c-2.632813 4.824219-7.730469 7.785157-13.226563 7.679688l-24.746094-1.171875c-9.964843-.367187-19.644531 3.375-26.773437 10.34375-7.03125 7.09375-10.78125 16.796875-10.347656 26.773437l1.175781 24.746094c.191406 5.519532-2.792969 10.660156-7.679688 13.226563l-21.972656 11.308593c-8.851562 4.621094-15.355468 12.75-17.921875 22.398438-2.65625 9.648438-1.066406 19.972656 4.375 28.375l13.332031 20.800781c2.984376 4.683594 2.984376 10.675781 0 15.359375l-13.332031 20.800782c-5.375 8.402343-6.964843 18.679687-4.390625 28.316406 2.578125 9.636718 9.085938 17.746094 17.9375 22.347656l21.972656 11.414062c4.90625 2.550782 7.898438 7.703126 7.679688 13.226563l-1.175781 24.746094c-.476563 9.984375 3.28125 19.707031 10.347656 26.773437 7.066406 7.070313 16.789063 10.824219 26.773437 10.347656l24.746094-1.171874c5.507813-.148438 10.625 2.824218 13.226563 7.679687l11.308593 21.972656c4.582032 8.898438 12.714844 15.441407 22.382813 18.023438 9.671875 2.578125 19.980469.953125 28.390625-4.476563l20.800781-13.332031c4.683594-2.988281 10.675781-2.988281 15.359375 0l20.800782 13.332031c5.71875 3.691406 12.386718 5.65625 19.199218 5.652344 3.09375-.015625 6.171875-.410156 9.171875-1.171875 9.640625-2.648437 17.753907-9.175781 22.398438-18.027344l11.308593-21.972656c2.703126-4.757813 7.753907-7.695313 13.226563-7.679687l24.746094 1.171874c9.984375.476563 19.707031-3.277343 26.773437-10.347656 7.066406-7.066406 10.824219-16.789062 10.347656-26.773437l-1.171874-24.746094c-.222657-5.523437 2.769531-10.675781 7.679687-13.226563l21.972656-11.414062c8.847657-4.601562 15.359375-12.710938 17.933594-22.347656 2.578125-9.636719.984375-19.914063-4.386719-28.316406zm-17.917969 11.519532 13.332031 20.800781c2.140625 3.359375 2.761719 7.464843 1.707031 11.304687-.957031 3.886719-3.570312 7.164063-7.144531 8.960938l-21.976562 11.308594c-12.253907 6.433593-19.722657 19.339843-19.199219 33.171874l1.175781 24.746094c.21875 3.988282-1.300781 7.878906-4.160156 10.667969-2.746094 2.929687-6.667969 4.457031-10.667969 4.160156l-24.640625-1.175781c-13.855469-.5-26.777343 6.957031-33.28125 19.203125l-11.304687 21.972656c-1.800782 3.574219-5.074219 6.1875-8.960938 7.144531-3.839844 1.0625-7.949218.441407-11.304687-1.707031l-20.800781-13.332031c-11.691407-7.539062-26.710938-7.539062-38.402344 0l-20.796875 13.332031c-3.359375 2.140625-7.46875 2.761719-11.308594 1.707031-3.886719-.957031-7.160156-3.570312-8.960937-7.144531l-11.304688-21.972656c-6.429688-12.3125-19.402344-19.796875-33.28125-19.203125l-24.640625 1.175781c-4.003906.328125-7.941406-1.207031-10.664063-4.160156-2.863281-2.789063-4.378906-6.679687-4.160156-10.667969l1.171875-24.746094c.523438-13.832031-6.945312-26.738281-19.199219-33.171874l-21.972656-11.308594c-3.578125-1.796875-6.1875-5.074219-7.148437-8.960938-1.050781-3.839844-.433594-7.945312 1.707031-11.304687l13.332031-20.800781c7.46875-11.710938 7.46875-26.6875 0-38.398438l-13.332031-20.800781c-2.140625-3.359375-2.757812-7.464844-1.707031-11.308594.960937-3.886719 3.570312-7.160156 7.148437-8.957031l21.972656-11.308594c12.28125-6.460938 19.753907-19.410156 19.199219-33.28125l-1.171875-24.636719c-.238281-3.996093 1.28125-7.890625 4.160156-10.667969 2.703126-2.988281 6.652344-4.53125 10.664063-4.160156l24.640625 1.171875c13.875.574219 26.832031-6.902343 33.28125-19.199219l11.304688-21.972656c1.859374-3.523437 5.101562-6.109375 8.949218-7.144531 3.84375-1.03125 7.945313-.414063 11.320313 1.703125l20.796875 13.335938c11.710937 7.464843 26.691406 7.464843 38.402344 0l20.800781-13.335938c3.371093-2.117188 7.472656-2.734375 11.320312-1.703125 3.84375 1.035156 7.085938 3.621094 8.945313 7.144531l11.304687 21.972656c6.402344 12.339844 19.394531 19.835938 33.28125 19.199219l24.640625-1.171875c4.003906-.320312 7.933594 1.214844 10.667969 4.160156 2.878906 2.777344 4.398437 6.671876 4.160156 10.667969l-1.175781 24.746094c-.523438 13.832031 6.945312 26.734375 19.199219 33.171875l21.976562 11.308594c3.574219 1.796875 6.1875 5.070312 7.144531 8.957031 1.054688 3.84375.433594 7.949219-1.707031 11.308594l-13.332031 20.800781c-7.46875 11.710938-7.46875 26.6875 0 38.398438zm0 0"></path></g></svg>