<svg width="16" height="16" viewBox="0 0 16 16" fill="none" xmlns="http://www.w3.org/2000/svg">
<path d="M14.3555 0.791016L11.4258 0.0878906C10.9863 0 10.5469 0.205078 10.3711 0.615234L8.99414 3.80859C8.84766 4.18945 8.93555 4.62891 9.25781 4.86328L10.8398 6.15234C9.84375 8.20312 8.20312 9.84375 6.15234 10.8398L4.86328 9.25781C4.62891 8.93555 4.18945 8.84766 3.80859 8.99414L0.615234 10.3711C0.234375 10.5469 0 10.9863 0.0878906 11.3965L0.791016 14.3555C0.878906 14.7656 1.23047 15.0586 1.66992 15.0586C9.05273 15.0586 15.0879 9.08203 15.0879 1.66992C15.0879 1.23047 14.7949 0.878906 14.3555 0.791016ZM1.69922 14.1211L1.02539 11.2207L4.16016 9.87305L5.91797 12.0117C8.93555 10.5762 10.5762 8.93555 12.0117 5.91797L9.87305 4.16016L11.2207 1.02539L14.1211 1.69922C14.1211 8.55469 8.55469 14.1211 1.69922 14.1211Z" fill="white"/>
</svg>
