<svg id="svg" fill="#000000" stroke="#000000" width="33" height="33" version="1.1" viewBox="144 144 512 512" xmlns="http://www.w3.org/2000/svg">
    <g id="IconSvg_bgCarrier" stroke-width="0"></g>
    <g id="IconSvg_tracerCarrier" stroke-linecap="round" stroke-linejoin="round" stroke="#CCCCCC" stroke-width="0">
      <path xmlns="http://www.w3.org/2000/svg" d="m592.15 350.62v86.254 12.594l10.078-10.078h-134.01-18.844c-5.4414 0-10.078 4.6367-10.078 10.078v134.01 18.844l10.078-10.078h-86.254-12.594c3.3242 3.3242 6.75 6.75 10.078 10.078v-134.01-18.844c0-5.4414-4.6367-10.078-10.078-10.078h-134.01-18.844l10.078 10.078v-86.254-12.594l-10.078 10.078h134.01 18.844c5.4414 0 10.078-4.6367 10.078-10.078v-134.01-18.844l-10.078 10.078h86.254 12.594c-3.3242-3.3242-6.75-6.75-10.078-10.078v134.01 18.844c0 5.4414 4.6367 10.078 10.078 10.078h134.01 18.844c13 0 13-20.152 0-20.152h-134.01-18.844l10.078 10.078v-134.01-18.844c0-5.4414-4.6367-10.078-10.078-10.078h-86.254-12.594c-5.4414 0-10.078 4.6367-10.078 10.078v134.01 18.844c3.3242-3.3242 6.75-6.75 10.078-10.078h-134.01-18.844c-5.4414 0-10.078 4.6367-10.078 10.078v86.254 12.594c0 5.4414 4.6367 10.078 10.078 10.078h134.01 18.844c-3.3242-3.3242-6.75-6.75-10.078-10.078v134.01 18.844c0 5.4414 4.6367 10.078 10.078 10.078h86.254 12.594c5.4414 0 10.078-4.6367 10.078-10.078v-134.01-18.844c-3.3242 3.3242-6.75 6.75-10.078 10.078h134.01 18.844c5.4414 0 10.078-4.6367 10.078-10.078v-86.254-12.594c-0.003906-13.004-20.156-13.004-20.156-0.003906z"></path>

      </g>
     <g id="IconSvg_iconCarrier">
      <path xmlns="http://www.w3.org/2000/svg" d="m592.15 350.62v86.254 12.594l10.078-10.078h-134.01-18.844c-5.4414 0-10.078 4.6367-10.078 10.078v134.01 18.844l10.078-10.078h-86.254-12.594c3.3242 3.3242 6.75 6.75 10.078 10.078v-134.01-18.844c0-5.4414-4.6367-10.078-10.078-10.078h-134.01-18.844l10.078 10.078v-86.254-12.594l-10.078 10.078h134.01 18.844c5.4414 0 10.078-4.6367 10.078-10.078v-134.01-18.844l-10.078 10.078h86.254 12.594c-3.3242-3.3242-6.75-6.75-10.078-10.078v134.01 18.844c0 5.4414 4.6367 10.078 10.078 10.078h134.01 18.844c13 0 13-20.152 0-20.152h-134.01-18.844l10.078 10.078v-134.01-18.844c0-5.4414-4.6367-10.078-10.078-10.078h-86.254-12.594c-5.4414 0-10.078 4.6367-10.078 10.078v134.01 18.844c3.3242-3.3242 6.75-6.75 10.078-10.078h-134.01-18.844c-5.4414 0-10.078 4.6367-10.078 10.078v86.254 12.594c0 5.4414 4.6367 10.078 10.078 10.078h134.01 18.844c-3.3242-3.3242-6.75-6.75-10.078-10.078v134.01 18.844c0 5.4414 4.6367 10.078 10.078 10.078h86.254 12.594c5.4414 0 10.078-4.6367 10.078-10.078v-134.01-18.844c-3.3242 3.3242-6.75 6.75-10.078 10.078h134.01 18.844c5.4414 0 10.078-4.6367 10.078-10.078v-86.254-12.594c-0.003906-13.004-20.156-13.004-20.156-0.003906z"></path>

      </g>
      </svg>