<!-- icon666.com - MILLIONS OF FREE VECTOR ICONS --><svg viewBox="0 0 64 64" xmlns="http://www.w3.org/2000/svg"><g id="Back"><path d="m-440-104h524v1196h-524z" fill="#fff"></path></g><g id="Filled_Expand" data-name="Filled Expand"><path d="m49.484 6.03-17.677.707-17.678 17.678 8.871 16.585 16.585 8.871 17.678-17.678.707-17.677zm1.416 11.314a3 3 0 1 1 0-4.243 3 3 0 0 1 0 4.243z" fill="#f66f7f"></path><path d="m49.484 6.03-14.731.59-19.638 19.638 7.885 14.742 16.585 8.871 17.678-17.678.707-17.677zm-2.828 11.314a3 3 0 1 1 4.243 0 3 3 0 0 1 -4.243 0z" fill="#f03c5a"></path><path d="m18.2 24.8h11a0 0 0 0 1 0 0v36a0 0 0 0 1 0 0h-11a5 5 0 0 1 -5-5v-26a5 5 0 0 1 5-5z" fill="#fffbf9" transform="matrix(.707 -.707 .707 .707 -24.055 27.527)"></path><path d="m9.179 32.193a5 5 0 0 0 0 7.071l18.385 18.385a4.953 4.953 0 0 0 2.121 1.237 4.956 4.956 0 0 0 2.122-1.237l7.778-7.778-24.042-24.042z" fill="#fff0eb"></path><path d="m15.644 38.658a3.992 3.992 0 0 0 6.263 4.849 2.049 2.049 0 0 1 2.828 0 2 2 0 0 1 0 2.828 2.049 2.049 0 0 1 -2.828 0 1 1 0 0 0 -1.414 1.415 3.961 3.961 0 0 0 4.849.607l.808.807a1 1 0 1 0 1.414-1.415l-.807-.807a3.992 3.992 0 0 0 -6.264-4.849 2 2 0 1 1 0-2.829 1 1 0 0 0 1.414-1.414 4 4 0 0 0 -4.849-.606l-.808-.808a1 1 0 1 0 -1.414 1.414z"></path><path d="m35.342 14.516a1 1 0 0 0 -1.414 0l-11.314 11.314a1 1 0 1 0 1.414 1.414l11.314-11.314a1 1 0 0 0 0-1.414z"></path><path d="m38.878 18.051a1 1 0 0 0 -1.414 0l-11.314 11.314a1 1 0 1 0 1.414 1.414l11.314-11.314a1 1 0 0 0 0-1.414z"></path><path d="m42.413 21.587a1 1 0 0 0 -1.414 0l-11.313 11.313a1 1 0 1 0 1.414 1.414l11.313-11.314a1 1 0 0 0 0-1.413z"></path><path d="m45.949 25.122a1 1 0 0 0 -1.414 0l-11.314 11.314a1 1 0 1 0 1.414 1.414l11.314-11.314a1 1 0 0 0 0-1.414z"></path><path d="m48.07 28.658-11.313 11.314a1 1 0 1 0 1.414 1.414l11.313-11.314a1 1 0 0 0 -1.414-1.414z"></path><path d="m59.384 4.616c-1.7-1.7-5.046-.268-7.755 2.145l-1.438-1.438a1 1 0 0 0 -.747-.292l-17.677.707a1 1 0 0 0 -.667.292l-25.456 25.456a6.007 6.007 0 0 0 0 8.485l18.384 18.385a6 6 0 0 0 8.486 0l25.456-25.456a1 1 0 0 0 .292-.667l.707-17.677a1 1 0 0 0 -.292-.747l-1.445-1.445a13.2 13.2 0 0 0 2.423-3.72c.935-2.334.231-3.526-.271-4.028zm-28.284 52.326a4.1 4.1 0 0 1 -5.658 0l-18.384-18.385a4.006 4.006 0 0 1 0-5.657l7.071-7.071 24.042 24.042zm25.179-25.179-16.694 16.694-24.042-24.042 16.694-16.694 16.85-.674 5.313 5.317a12.733 12.733 0 0 1 -1.911 1.4 4 4 0 1 0 .213 2.161 14.145 14.145 0 0 0 3.12-2.14l1.127 1.127zm-6.8-17.247c-.148-.149-.2-.561-.05-1.174a2 2 0 0 1 1.223 1.221c-.571.142-.996.125-1.168-.047zm.68 2.142a2 2 0 0 1 -2.81-2.837 2.7 2.7 0 0 0 .716 2.109 2.64 2.64 0 0 0 1.937.743c.055 0 .111-.013.162-.015zm7.641-8.758a11.252 11.252 0 0 1 -1.98 3.049l-2.759-2.756c2.345-2.05 4.46-2.612 4.909-2.163.198.199.23.87-.17 1.87z"></path></g></svg>