<!-- icon666.com - MILLIONS OF FREE VECTOR ICONS --><svg viewBox="0 0 24 24" xmlns="http://www.w3.org/2000/svg"><g id="flat_copy" data-name="flat copy"><path d="m15 14a3.01 3.01 0 0 1 -2 2.82v1.18h-2v-1.18a3.01 3.01 0 0 1 -2-2.82h2a.9944.9944 0 0 0 .78.97.78.78 0 0 0 .22.03 1 1 0 0 0 0-2 2.9951 2.9951 0 0 1 -1-5.82v-1.18h2v1.18a3.01 3.01 0 0 1 2 2.82h-2a1.0029 1.0029 0 0 0 -1-1 .78.78 0 0 0 -.22.03h-.01a.9921.9921 0 0 0 -.77.97 1.0029 1.0029 0 0 0 1 1 3.0088 3.0088 0 0 1 3 3z" fill="#4caf50"></path><g fill="#388e3c"><path d="m14.6442 10h.3558a2.995 2.995 0 0 0 -2-2.8157v-1.1843h-.3558v1.1843a2.995 2.995 0 0 1 2 2.8157z"></path><path d="m15 14a3.01 3.01 0 0 1 -2 2.82v1.18h-.36v-1.18a2.9951 2.9951 0 0 0 -1-5.82 1 1 0 0 1 0-2 .3194.3194 0 0 1 .14.03.99.99 0 0 0 -.78.97 1.0029 1.0029 0 0 0 1 1 3.0088 3.0088 0 0 1 3 3z"></path><path d="m11.78 14.97a.3194.3194 0 0 1 -.14.03 1.0029 1.0029 0 0 1 -1-1h.36a.9944.9944 0 0 0 .78.97z"></path></g><path d="m18.64 3v2a1.051 1.051 0 0 1 -.48.85l-1.64 1a.9284.9284 0 0 1 -.68.13.9933.9933 0 0 1 -.36-1.83l.3-.19a8.0082 8.0082 0 0 0 -3.78-.96c-.15 0-.3 0-.45.01a8.0379 8.0379 0 0 0 -6.72 11.54.9925.9925 0 0 1 -.44 1.34.9342.9342 0 0 1 -.45.11.7613.7613 0 0 1 -.21-.03.4951.4951 0 0 1 -.13-.04.8966.8966 0 0 1 -.55-.48 9.9886 9.9886 0 0 1 13.59-13.3v-.15a.9947.9947 0 0 1 .68-.94.7491.7491 0 0 1 .16-.04.7772.7772 0 0 1 .16-.02 1.0029 1.0029 0 0 1 1 1z" fill="#4caf50"></path><path d="m20.9546 7.5527a1 1 0 0 0 -1.7891.8946 7.9875 7.9875 0 0 1 -10.9632 10.5827l.29-.1812a1 1 0 0 0 -1.0586-1.6972l-1.6035 1c-.0173.0107-.0262.0286-.0426.04a1.0172 1.0172 0 0 0 -.4276.8084v2a1 1 0 0 0 2 0v-.1484a9.9943 9.9943 0 0 0 13.5946-13.2989z" fill="#4caf50"></path><path d="m20.9546 7.5527a.9793.9793 0 0 0 -1.57-.2692c.7454.7118 1.2554 3.3123 1.2554 4.7165a10.0062 10.0062 0 0 1 -9.2549 9.9622c.2049.0128.4088.0378.6149.0378a9.9967 9.9967 0 0 0 8.9546-14.4473z" fill="#388e3c"></path><path d="m17.64 2a.9814.9814 0 0 0 -.32.0646.9907.9907 0 0 1 .68.9354v2a1.0464 1.0464 0 0 1 -.48.854 13.6212 13.6212 0 0 1 -1.84 1.0866.96.96 0 0 0 .84-.0866l1.64-1a1.0524 1.0524 0 0 0 .48-.854v-2a1 1 0 0 0 -1-1z" fill="#388e3c"></path><path d="m11.55 4.01a8.0379 8.0379 0 0 0 -6.72 11.54.9925.9925 0 0 1 -.44 1.34.9342.9342 0 0 1 -.45.11.7613.7613 0 0 1 -.21-.03.4951.4951 0 0 1 -.13-.04c.05-.02.1-.01.15-.04a.9925.9925 0 0 0 .44-1.34 8.0013 8.0013 0 0 1 7.17-11.55 1.1483 1.1483 0 0 1 .19.01z" fill="#388e3c"></path></g></svg>