<svg width="32" height="28" viewBox="0 0 32 28" fill="none" xmlns="http://www.w3.org/2000/svg">
<path d="M30.1328 3.5H7.05469L6.5625 1.09375C6.45312 0.492188 5.90625 0 5.30469 0H0.65625C0.273438 0 0 0.328125 0 0.65625V1.09375C0 1.47656 0.273438 1.75 0.65625 1.75H4.92188L8.75 22.1484C8.20312 22.8047 7.875 23.625 7.875 24.5C7.875 26.4688 9.40625 28 11.375 28C13.2891 28 14.875 26.4688 14.875 24.5C14.875 23.8984 14.6562 23.2969 14.3828 22.75H22.3125C22.0391 23.2969 21.875 23.8984 21.875 24.5C21.875 26.4688 23.4062 28 25.375 28C27.2891 28 28.875 26.4688 28.875 24.5C28.875 23.5703 28.4375 22.6406 27.7812 22.0391C27.6719 21.4375 27.125 21 26.5234 21H10.3359L9.67969 17.5H27.7812C28.4375 17.5 28.9297 17.1172 29.0938 16.4609L31.4453 5.08594C31.6094 4.26562 31.0078 3.5 30.1328 3.5ZM13.125 24.5C13.125 25.4844 12.3047 26.25 11.375 26.25C10.3906 26.25 9.625 25.4844 9.625 24.5C9.625 23.5703 10.3906 22.75 11.375 22.75C12.3047 22.75 13.125 23.5703 13.125 24.5ZM25.375 26.25C24.3906 26.25 23.625 25.4844 23.625 24.5C23.625 23.5703 24.3906 22.75 25.375 22.75C26.3047 22.75 27.125 23.5703 27.125 24.5C27.125 25.4844 26.3047 26.25 25.375 26.25ZM27.4531 15.75H9.35156L7.38281 5.25H29.6406L27.4531 15.75Z" fill="#4BB45E"/>
</svg>
