<svg width="16" height="12" viewBox="0 0 16 12" fill="none" xmlns="http://www.w3.org/2000/svg">
<path d="M13 12C14.6562 12 16 10.6562 16 9V3C16 1.34375 14.6562 0 13 0H10.375C10.1562 0 10 0.1875 10 0.375V1.125C10 1.34375 10.1562 1.5 10.375 1.5H13C13.8125 1.5 14.5 2.1875 14.5 3V9C14.5 9.84375 13.8125 10.5 13 10.5H10.375C10.1562 10.5 10 10.6875 10 10.875V11.625C10 11.8438 10.1562 12 10.375 12H13ZM5.21875 0.625L4.59375 1.25C4.4375 1.375 4.4375 1.625 4.59375 1.78125L8.125 5.1875H0.375C0.15625 5.1875 0 5.375 0 5.5625V6.4375C0 6.65625 0.15625 6.8125 0.375 6.8125H8.125L4.59375 10.25C4.4375 10.4062 4.4375 10.6562 4.59375 10.7812L5.21875 11.4062C5.34375 11.5625 5.59375 11.5625 5.75 11.4062L10.875 6.28125C11.0312 6.125 11.0312 5.90625 10.875 5.75L5.75 0.625C5.59375 0.46875 5.34375 0.46875 5.21875 0.625Z" fill="#444444"/>
</svg>
